<svg xmlns="http://www.w3.org/2000/svg" fill="none" viewBox="0 0 128 128"><defs><linearGradient id="bgGrad" x1="0%" x2="100%" y1="0%" y2="100%"><stop offset="0%" stop-color="#121824"/><stop offset="100%" stop-color="#080B11"/></linearGradient><linearGradient id="sparkleGrad" x1="0%" x2="100%" y1="0%" y2="100%"><stop offset="0%" stop-color="#00F0FF"/><stop offset="100%" stop-color="#06F"/></linearGradient><linearGradient id="handleGrad" x1="0%" x2="100%" y1="0%" y2="100%"><stop offset="0%" stop-color="#4B5263"/><stop offset="100%" stop-color="#1F232D"/></linearGradient><linearGradient id="shaftGrad" x1="0%" x2="100%" y1="0%" y2="100%"><stop offset="0%" stop-color="#FFF"/><stop offset="100%" stop-color="#9AA0A6"/></linearGradient></defs><style>.bg-circle{fill:url(#bgGrad);stroke:#1e293b;stroke-width:2}@media (prefers-color-scheme:dark){.bg-circle{stroke:#334155}}</style><circle cx="64" cy="64" r="58" class="bg-circle"/><g transform="rotate(45, 64, 64)"><rect width="16" height="38" x="56" y="68" fill="url(#handleGrad)" stroke="#0D0E12" stroke-width="2.5" rx="6"/><line x1="60" x2="60" y1="74" y2="96" stroke="#1F232D" stroke-linecap="round" stroke-width="2"/><line x1="68" x2="68" y1="74" y2="96" stroke="#1F232D" stroke-linecap="round" stroke-width="2"/><rect width="6" height="30" x="61" y="38" fill="url(#shaftGrad)" stroke="#1F232D" stroke-width=".5"/><polygon fill="url(#shaftGrad)" stroke="#1F232D" stroke-width=".5" points="59 38 69 38 67 32 61 32"/></g><g transform="translate(87, 41)"><circle cx="0" cy="0" r="18" fill="#00F0FF" opacity=".15"/><circle cx="0" cy="0" r="8" fill="#06F" opacity=".25"/><path fill="url(#sparkleGrad)" d="M 0 -18 Q 0 0 18 0 Q 0 0 0 18 Q 0 0 -18 0 Q 0 0 0 -18 Z"/><path fill="#FFF" d="M 0 -8 Q 0 0 8 0 Q 0 0 0 8 Q 0 0 -8 0 Q 0 0 0 -8 Z"/></g><rect width="10" height="10" x="94" y="60" fill="#00F0FF" opacity=".85" rx="2" transform="rotate(15, 99, 65)"/></svg>